<mxfile host="app.diagrams.net" modified="2020-09-18T19:36:46.785Z" agent="5.0 (X11; Linux x86_64) AppleWebKit/537.36 (KHTML, like Gecko) Chrome/84.0.4147.105 Safari/537.36" etag="qmOnnoFnAmoazS8yHyzu" version="13.7.3" type="github">
  <diagram name="Page-1" id="b5b7bab2-c9e2-2cf4-8b2a-24fd1a2a6d21">
    <mxGraphModel dx="930" dy="1109" grid="1" gridSize="10" guides="1" tooltips="1" connect="1" arrows="1" fold="1" page="1" pageScale="1" pageWidth="827" pageHeight="1169" background="#ffffff" math="0" shadow="0">
      <root>
        <mxCell id="0" />
        <mxCell id="1" parent="0" />
        <mxCell id="2eol-hDx-aK6MEHkuCqB-11" value="Use" style="endArrow=open;endSize=12;dashed=1;html=1;exitX=0.5;exitY=0;exitDx=0;exitDy=0;entryX=0.481;entryY=1.1;entryDx=0;entryDy=0;entryPerimeter=0;" parent="1" source="2eol-hDx-aK6MEHkuCqB-7" target="2eol-hDx-aK6MEHkuCqB-5" edge="1">
          <mxGeometry width="160" relative="1" as="geometry">
            <mxPoint x="290" y="610" as="sourcePoint" />
            <mxPoint x="450" y="610" as="targetPoint" />
          </mxGeometry>
        </mxCell>
        <mxCell id="2eol-hDx-aK6MEHkuCqB-23" value="Use" style="endArrow=open;endSize=12;dashed=1;html=1;" parent="1" source="2eol-hDx-aK6MEHkuCqB-13" target="2eol-hDx-aK6MEHkuCqB-7" edge="1">
          <mxGeometry width="160" relative="1" as="geometry">
            <mxPoint x="290" y="610" as="sourcePoint" />
            <mxPoint x="450" y="610" as="targetPoint" />
          </mxGeometry>
        </mxCell>
        <mxCell id="2eol-hDx-aK6MEHkuCqB-24" value="Use" style="endArrow=open;endSize=12;dashed=1;html=1;" parent="1" source="2eol-hDx-aK6MEHkuCqB-17" target="2eol-hDx-aK6MEHkuCqB-7" edge="1">
          <mxGeometry width="160" relative="1" as="geometry">
            <mxPoint x="430" y="890" as="sourcePoint" />
            <mxPoint x="590" y="890" as="targetPoint" />
          </mxGeometry>
        </mxCell>
        <mxCell id="2eol-hDx-aK6MEHkuCqB-1" value="Interpolator" style="swimlane;fontStyle=1;align=center;verticalAlign=top;childLayout=stackLayout;horizontal=1;startSize=26;horizontalStack=0;resizeParent=1;resizeParentMax=0;resizeLast=0;collapsible=1;marginBottom=0;" parent="1" vertex="1">
          <mxGeometry x="80" y="10" width="500" height="158" as="geometry">
            <mxRectangle x="100" y="100" width="100" height="26" as="alternateBounds" />
          </mxGeometry>
        </mxCell>
        <mxCell id="2eol-hDx-aK6MEHkuCqB-2" value="+ modeOfInterpolation: enum&#xa;// switch between linear interpolation, quintic and quartic" style="text;strokeColor=none;fillColor=none;align=left;verticalAlign=top;spacingLeft=4;spacingRight=4;overflow=hidden;rotatable=0;points=[[0,0.5],[1,0.5]];portConstraint=eastwest;" parent="2eol-hDx-aK6MEHkuCqB-1" vertex="1">
          <mxGeometry y="26" width="500" height="44" as="geometry" />
        </mxCell>
        <mxCell id="2eol-hDx-aK6MEHkuCqB-3" value="" style="line;strokeWidth=1;fillColor=none;align=left;verticalAlign=middle;spacingTop=-1;spacingLeft=3;spacingRight=3;rotatable=0;labelPosition=right;points=[];portConstraint=eastwest;" parent="2eol-hDx-aK6MEHkuCqB-1" vertex="1">
          <mxGeometry y="70" width="500" height="8" as="geometry" />
        </mxCell>
        <mxCell id="2eol-hDx-aK6MEHkuCqB-4" value="+ setup(single startTime, single endTime)&#xa;" style="text;strokeColor=none;fillColor=none;align=left;verticalAlign=top;spacingLeft=4;spacingRight=4;overflow=hidden;rotatable=0;points=[[0,0.5],[1,0.5]];portConstraint=eastwest;" parent="2eol-hDx-aK6MEHkuCqB-1" vertex="1">
          <mxGeometry y="78" width="500" height="40" as="geometry" />
        </mxCell>
        <mxCell id="2eol-hDx-aK6MEHkuCqB-5" value="+ compute(single currentTime): single&#xa;// Return a value from 0 to 1 representing position along the path" style="text;strokeColor=none;fillColor=none;align=left;verticalAlign=top;spacingLeft=4;spacingRight=4;overflow=hidden;rotatable=0;points=[[0,0.5],[1,0.5]];portConstraint=eastwest;" parent="2eol-hDx-aK6MEHkuCqB-1" vertex="1">
          <mxGeometry y="118" width="500" height="40" as="geometry" />
        </mxCell>
        <mxCell id="2eol-hDx-aK6MEHkuCqB-7" value="ValueInterpolator" style="swimlane;fontStyle=1;align=center;verticalAlign=top;childLayout=stackLayout;horizontal=1;startSize=26;horizontalStack=0;resizeParent=1;resizeParentMax=0;resizeLast=0;collapsible=1;marginBottom=0;" parent="1" vertex="1">
          <mxGeometry y="210" width="590" height="160" as="geometry" />
        </mxCell>
        <mxCell id="2eol-hDx-aK6MEHkuCqB-8" value="+ interpolationEngine: Interpolator" style="text;strokeColor=none;fillColor=none;align=left;verticalAlign=top;spacingLeft=4;spacingRight=4;overflow=hidden;rotatable=0;points=[[0,0.5],[1,0.5]];portConstraint=eastwest;" parent="2eol-hDx-aK6MEHkuCqB-7" vertex="1">
          <mxGeometry y="26" width="590" height="26" as="geometry" />
        </mxCell>
        <mxCell id="2eol-hDx-aK6MEHkuCqB-9" value="" style="line;strokeWidth=1;fillColor=none;align=left;verticalAlign=middle;spacingTop=-1;spacingLeft=3;spacingRight=3;rotatable=0;labelPosition=right;points=[];portConstraint=eastwest;" parent="2eol-hDx-aK6MEHkuCqB-7" vertex="1">
          <mxGeometry y="52" width="590" height="8" as="geometry" />
        </mxCell>
        <mxCell id="2eol-hDx-aK6MEHkuCqB-10" value="+ setup(single startValue, single startTime, single endValue, single endTime)&#xa;// Initialize the interpolation with values and offsets&#xa;" style="text;strokeColor=none;fillColor=none;align=left;verticalAlign=top;spacingLeft=4;spacingRight=4;overflow=hidden;rotatable=0;points=[[0,0.5],[1,0.5]];portConstraint=eastwest;" parent="2eol-hDx-aK6MEHkuCqB-7" vertex="1">
          <mxGeometry y="60" width="590" height="50" as="geometry" />
        </mxCell>
        <mxCell id="2eol-hDx-aK6MEHkuCqB-12" value="+ compute(single currentTime): singe intermediateValue&#xa;// Compute the value along the interpolation, apply start value offset and scale across the range&#xa;" style="text;strokeColor=none;fillColor=none;align=left;verticalAlign=top;spacingLeft=4;spacingRight=4;overflow=hidden;rotatable=0;points=[[0,0.5],[1,0.5]];portConstraint=eastwest;" parent="2eol-hDx-aK6MEHkuCqB-7" vertex="1">
          <mxGeometry y="110" width="590" height="50" as="geometry" />
        </mxCell>
        <mxCell id="2eol-hDx-aK6MEHkuCqB-13" value="PoseInterpolator" style="swimlane;fontStyle=1;align=center;verticalAlign=top;childLayout=stackLayout;horizontal=1;startSize=26;horizontalStack=0;resizeParent=1;resizeParentMax=0;resizeLast=0;collapsible=1;marginBottom=0;" parent="1" vertex="1">
          <mxGeometry x="10" y="570" width="540" height="288" as="geometry" />
        </mxCell>
        <mxCell id="2eol-hDx-aK6MEHkuCqB-14" value="+ xInterp: ValueInterpolator" style="text;strokeColor=none;fillColor=none;align=left;verticalAlign=top;spacingLeft=4;spacingRight=4;overflow=hidden;rotatable=0;points=[[0,0.5],[1,0.5]];portConstraint=eastwest;" parent="2eol-hDx-aK6MEHkuCqB-13" vertex="1">
          <mxGeometry y="26" width="540" height="26" as="geometry" />
        </mxCell>
        <mxCell id="2eol-hDx-aK6MEHkuCqB-21" value="+ yInterp: ValueInterpolator" style="text;strokeColor=none;fillColor=none;align=left;verticalAlign=top;spacingLeft=4;spacingRight=4;overflow=hidden;rotatable=0;points=[[0,0.5],[1,0.5]];portConstraint=eastwest;" parent="2eol-hDx-aK6MEHkuCqB-13" vertex="1">
          <mxGeometry y="52" width="540" height="26" as="geometry" />
        </mxCell>
        <mxCell id="2eol-hDx-aK6MEHkuCqB-15" value="" style="line;strokeWidth=1;fillColor=none;align=left;verticalAlign=middle;spacingTop=-1;spacingLeft=3;spacingRight=3;rotatable=0;labelPosition=right;points=[];portConstraint=eastwest;" parent="2eol-hDx-aK6MEHkuCqB-13" vertex="1">
          <mxGeometry y="78" width="540" height="8" as="geometry" />
        </mxCell>
        <mxCell id="2eol-hDx-aK6MEHkuCqB-22" value="+ zInterp: ValueInterpolator" style="text;strokeColor=none;fillColor=none;align=left;verticalAlign=top;spacingLeft=4;spacingRight=4;overflow=hidden;rotatable=0;points=[[0,0.5],[1,0.5]];portConstraint=eastwest;" parent="2eol-hDx-aK6MEHkuCqB-13" vertex="1">
          <mxGeometry y="86" width="540" height="26" as="geometry" />
        </mxCell>
        <mxCell id="2eol-hDx-aK6MEHkuCqB-16" value="+ setup(single newX, single newY, single newZ, single duration)&#xa;// Use the FK to get the starting X,Y,Z&#xa;// Use current time from clock to get start time&#xa;// Use current time plus duration to compute end time" style="text;strokeColor=none;fillColor=none;align=left;verticalAlign=top;spacingLeft=4;spacingRight=4;overflow=hidden;rotatable=0;points=[[0,0.5],[1,0.5]];portConstraint=eastwest;" parent="2eol-hDx-aK6MEHkuCqB-13" vertex="1">
          <mxGeometry y="112" width="540" height="88" as="geometry" />
        </mxCell>
        <mxCell id="2eol-hDx-aK6MEHkuCqB-25" value="+ compute(): single[3] Q vector&#xa;// Use current time from clock&#xa;// Compute new X,Y,Z pose&#xa;// Put X,Y,Z through IK to get Q of all links" style="text;strokeColor=none;fillColor=none;align=left;verticalAlign=top;spacingLeft=4;spacingRight=4;overflow=hidden;rotatable=0;points=[[0,0.5],[1,0.5]];portConstraint=eastwest;" parent="2eol-hDx-aK6MEHkuCqB-13" vertex="1">
          <mxGeometry y="200" width="540" height="88" as="geometry" />
        </mxCell>
        <mxCell id="2eol-hDx-aK6MEHkuCqB-17" value="JointInterpolator" style="swimlane;fontStyle=1;align=center;verticalAlign=top;childLayout=stackLayout;horizontal=1;startSize=26;horizontalStack=0;resizeParent=1;resizeParentMax=0;resizeLast=0;collapsible=1;marginBottom=0;" parent="1" vertex="1">
          <mxGeometry x="320" y="420" width="480" height="86" as="geometry" />
        </mxCell>
        <mxCell id="2eol-hDx-aK6MEHkuCqB-18" value="+ jointInterpolation: ValueInterpolator" style="text;strokeColor=none;fillColor=none;align=left;verticalAlign=top;spacingLeft=4;spacingRight=4;overflow=hidden;rotatable=0;points=[[0,0.5],[1,0.5]];portConstraint=eastwest;" parent="2eol-hDx-aK6MEHkuCqB-17" vertex="1">
          <mxGeometry y="26" width="480" height="26" as="geometry" />
        </mxCell>
        <mxCell id="2eol-hDx-aK6MEHkuCqB-19" value="" style="line;strokeWidth=1;fillColor=none;align=left;verticalAlign=middle;spacingTop=-1;spacingLeft=3;spacingRight=3;rotatable=0;labelPosition=right;points=[];portConstraint=eastwest;" parent="2eol-hDx-aK6MEHkuCqB-17" vertex="1">
          <mxGeometry y="52" width="480" height="8" as="geometry" />
        </mxCell>
        <mxCell id="2eol-hDx-aK6MEHkuCqB-20" value="+ compute(single currentTime): singe intermediateValue&#xa;&#xa;" style="text;strokeColor=none;fillColor=none;align=left;verticalAlign=top;spacingLeft=4;spacingRight=4;overflow=hidden;rotatable=0;points=[[0,0.5],[1,0.5]];portConstraint=eastwest;" parent="2eol-hDx-aK6MEHkuCqB-17" vertex="1">
          <mxGeometry y="60" width="480" height="26" as="geometry" />
        </mxCell>
      </root>
    </mxGraphModel>
  </diagram>
</mxfile>
